Coordinates
version=1
nRows=8
nColumns=40
inDegrees=yes

Units are S.I. units (second, meters, Newtons, ...)
Angles are in degrees.

endheader
time	pelvis_tilt	pelvis_list	pelvis_rotation	pelvis_tx	pelvis_ty	pelvis_tz	hip_flexion_r	hip_adduction_r	hip_rotation_r	knee_angle_r	knee_angle_r_beta	ankle_angle_r	subtalar_angle_r	mtp_angle_r	hip_flexion_l	hip_adduction_l	hip_rotation_l	knee_angle_l	knee_angle_l_beta	ankle_angle_l	subtalar_angle_l	mtp_angle_l	lumbar_extension	lumbar_bending	lumbar_rotation	arm_flex_r	arm_add_r	arm_rot_r	elbow_flex_r	pro_sup_r	wrist_flex_r	wrist_dev_r	arm_flex_l	arm_add_l	arm_rot_l	elbow_flex_l	pro_sup_l	wrist_flex_l	wrist_dev_l
     14.91492857	     -2.86829507	     -5.41649349	     -8.60328700	      0.89158681	      0.92645001	      0.45674940	     25.09580481	     -0.09772676	     -7.99433888	     20.89429701	     20.89429701	      5.99067260	      4.08351752	      0.81482019	      3.35678726	     -3.60567661	    -10.31226698	     19.39473808	     19.39473808	     20.21233719	    -11.98187736	      0.83129966	    -10.92346226	      6.88863645	      1.97722781	    -18.60201298	    -11.96809914	    -17.95595090	     26.90612214	     46.88920671	      0.00000000	      0.00000000	     32.40766885	    -21.67239617	     -5.59035814	     64.20329232	     47.76835282	      0.00000000	      0.00000000
     14.93485714	     -3.06701562	     -5.24212847	     -8.92774098	      0.89223193	      0.92549801	      0.45949030	     24.63049431	      0.16984376	     -8.28718261	     18.62018827	     18.62018827	      5.50912583	      5.83888723	      1.54433911	      2.67827879	     -3.48736637	    -10.71648652	     18.69666408	     18.69666408	     20.39193872	    -11.66462447	      0.63018718	    -10.70680140	      6.85816326	      2.17175269	    -18.73401359	    -11.87083152	    -18.03972328	     27.04332645	     46.88381129	      0.00000000	      0.00000000	     33.40223592	    -22.05946735	     -6.00043259	     65.27204594	     47.82141768	      0.00000000	      0.00000000
     14.95478571	     -3.12529469	     -5.05881708	     -9.21534415	      0.89330555	      0.92459080	      0.46225602	     24.13223789	      0.26145049	     -8.91842948	     17.13849880	     17.13849880	      5.18773857	      7.82019199	      2.01990281	      1.76973676	     -3.34897439	    -11.28510661	     17.88123142	     17.88123142	     20.50823318	    -11.07737230	      0.14488092	    -10.77096307	      6.85369703	      2.38561952	    -18.73844062	    -11.77440625	    -18.26259302	     27.38050694	     46.87674552	      0.00000000	      0.00000000	     34.01688361	    -22.28558310	     -6.80540971	     67.08506913	     47.90934432	      0.00000000	      0.00000000
     14.97471429	     -3.32309403	     -4.87246525	     -9.44887178	      0.89460014	      0.92342483	      0.46524634	     23.89262906	      0.40770772	     -9.05539791	     16.28683109	     16.28683109	      4.75577565	      8.58038740	      2.13976008	      1.12497295	     -3.23610618	    -11.61815134	     17.29453120	     17.29453120	     20.69186938	    -10.74621166	     -0.08286593	    -10.55343192	      6.85492954	      2.55007210	    -18.51168690	    -11.66150288	    -18.35383992	     27.52198841	     46.87453479	      0.00000000	      0.00000000	     34.65808334	    -22.50290676	     -7.33549820	     68.19755879	     47.96791924	      0.00000000	      0.00000000
     14.99464286	     -3.60202729	     -4.79132541	     -9.63014541	      0.89608174	      0.92212080	      0.46840742	     23.95684906	      0.60715033	     -9.08087898	     16.26323177	     16.26323177	      4.45457285	      8.73047333	      2.09375464	      0.70030535	     -3.28289672	    -11.78839877	     17.01510693	     17.01510693	     20.89920041	    -10.67168679	     -0.15807564	    -10.26553545	      7.04500730	      2.71767351	    -18.18447633	    -11.65042116	    -18.37251849	     27.62717485	     46.87299189	      0.00000000	      0.00000000	     35.31557650	    -22.77402358	     -7.60500737	     68.72491279	     47.99999895	      0.00000000	      0.00000000
     15.01457143	     -3.79764173	     -4.74171513	     -9.72838266	      0.89782288	      0.92115848	      0.47174309	     23.88223152	      0.79752429	     -9.09406260	     16.47021057	     16.47021057	      4.14978899	      8.68918539	      1.86707257	      0.11567363	     -3.36347274	    -11.96875422	     16.61294950	     16.61294950	     21.06144786	    -10.42305268	     -0.21624725	    -10.07286615	      7.22253543	      2.89676834	    -17.76066788	    -11.58876511	    -18.39352664	     27.71894336	     46.87263537	      0.00000000	      0.00000000	     35.88255364	    -22.86971418	     -7.93026917	     69.43066802	     48.03793488	      0.00000000	      0.00000000
     15.03450000	     -3.81815185	     -4.66178944	     -9.78711971	      0.90012463	      0.92046622	      0.47535870	     23.51300609	      1.03248464	     -8.50475472	     16.59945487	     16.59945487	      2.55931701	      7.41646991	     -2.54110085	     -0.74254247	     -3.48895733	    -12.71360829	     16.13706358	     16.13706358	     21.21653947	     -9.25802569	     -0.83279234	    -10.15208569	      7.24348115	      1.93785295	    -16.29721724	    -11.65274896	    -19.13714205	     26.87378645	     46.95369641	      0.00000000	      0.00000000	     34.25807041	    -23.14278405	    -11.47408876	     73.67642089	     48.31985391	      0.00000000	      0.00000000
     15.05442857	     -4.04486467	     -4.72949282	     -9.69304077	      0.90221873	      0.91988475	      0.47895197	     23.48827704	      1.26939239	     -8.51807731	     17.25267172	     17.25267172	      2.49279774	      7.02433124	     -2.75271969	     -1.21353762	     -3.75639782	    -12.67093870	     15.91610195	     15.91610195	     21.27276968	     -9.14860200	     -0.76580005	     -9.96112875	      7.54711964	      2.03270355	    -15.84600787	    -11.62339431	    -19.11670680	     26.93215219	     46.95218800	      0.00000000	      0.00000000	     34.67495251	    -23.15339890	    -11.53135807	     73.92025165	     48.32962688	      0.00000000	      0.00000000
